<svg height="799.99998pt" viewBox="-24 -24 799.99998 799.99998" width="799.99998pt"
  xmlns="http://www.w3.org/2000/svg">
  <path
    d="m748.332031 432.347656v-118.027344l-73.851562-24.609374c-6.785157-24.484376-16.558594-48.039063-29.097657-70.128907l34.835938-69.675781-83.449219-83.46875-69.6875 34.832031c-22.097656-12.527343-45.648437-22.296875-70.125-29.097656l-24.609375-73.839844h-118.027344l-24.609374 73.839844c-24.476563 6.800781-48.027344 16.570313-70.128907 29.097656l-69.6875-34.832031-83.445312 83.457031 34.832031 69.6875c-12.539062 22.089844-22.308594 45.644531-29.09375 70.128907l-73.855469 24.609374v118.027344l73.855469 24.609375c6.785156 24.480469 16.554688 48.035157 29.09375 70.125l-34.832031 69.6875 83.445312 83.457031 69.6875-34.828124c22.105469 12.523437 45.65625 22.296874 70.136719 29.097656l24.601562 73.835937h118.027344l24.609375-73.835937c24.476563-6.800782 48.027344-16.574219 70.125-29.097656l69.679688 34.828124 83.445312-83.457031-34.824219-69.6875c12.539063-22.097656 22.3125-45.652343 29.097657-70.136719zm-96.25 11.824219c-6.796875 26.75-17.425781 52.378906-31.5625 76.085937l-3.507812 5.878907 32.859375 65.699219-58.035156 57.972656-65.699219-32.847656-5.878907 3.496093c-23.707031 14.160157-49.339843 24.808594-76.097656 31.625l-6.621094 1.691407-23.21875 69.558593h-81.972656l-23.21875-69.621093-6.621094-1.691407c-26.757812-6.792969-52.390624-17.425781-76.097656-31.5625l-5.878906-3.496093-65.699219 32.847656-57.972656-57.972656 32.867187-65.699219-3.515624-5.878907c-14.136719-23.707031-24.773438-49.335937-31.5625-76.085937l-1.679688-6.625-69.636719-23.226563v-81.972656l69.636719-23.226562 1.679688-6.628906c6.789062-26.746094 17.425781-52.375 31.5625-76.082032l3.515624-5.878906-32.867187-65.699219 57.972656-57.972656 65.699219 32.847656 5.878906-3.496093c23.707032-14.136719 49.339844-24.773438 76.097656-31.5625l6.621094-1.691407 23.21875-69.625h81.972656l23.21875 69.625 6.621094 1.691407c26.757813 6.789062 52.390625 17.425781 76.097656 31.5625l5.878907 3.496093 65.699219-32.847656 57.972656 57.972656-32.867188 65.699219 3.515625 5.878906c14.160157 23.699219 24.808594 49.324219 31.625 76.082032l1.675781 6.628906 69.574219 23.226562v81.972656l-69.632812 23.226563zm0 0"
    fill="#C5C5C5"/>
  <path
    d="m373.332031 173.332031c-110.453125 0-200 89.546875-200 200 0 110.457031 89.546875 200 200 200 110.457031 0 200-89.542969 200-200-.125-110.398437-89.597656-199.871093-200-200zm0 375c-96.648437 0-175-78.347656-175-175 0-96.648437 78.351563-175 175-175 96.652344 0 175 78.351563 175 175-.101562 96.609375-78.390625 174.898438-175 175zm0 0"
    fill="#C5C5C5"/>
  <path
    d="m410.832031 223.332031h-75v112.5h-112.5v75h112.5v112.5h75v-112.5h112.5v-75h-112.5zm87.5 137.5v25h-112.5v112.5h-25v-112.5h-112.5v-25h112.5v-112.5h25v112.5zm0 0"
    fill="#C5C5C5"/>
</svg>