<svg height="480pt" viewBox="-16 0 480 480" width="480pt" xmlns="http://www.w3.org/2000/svg"><path d="m448 240c-.097656-55.613281-40.960938-102.746094-96-110.71875v-73.28125c0-13.253906-10.746094-24-24-24h-72v-16c0-8.835938-7.164062-16-16-16h-128c-8.835938 0-16 7.164062-16 16v16h-72c-13.253906 0-24 10.746094-24 24v360c0 13.253906 10.746094 24 24 24h280v8c0 17.671875 14.328125 32 32 32s32-14.328125 32-32v-80c0-4.417969-3.582031-8-8-8v-10.65625c51.335938-11.316406 87.921875-56.773438 88-109.34375zm-16 0c0 53.019531-42.980469 96-96 96s-96-42.980469-96-96 42.980469-96 96-96c52.996094.058594 95.941406 43.003906 96 96zm-104-192c4.417969 0 8 3.582031 8 8v72c-5.355469.039062-10.703125.46875-16 1.28125v-49.28125c0-8.835938-7.164062-16-16-16h-48v-16zm-216-32h128v80h-128zm128 96c8.835938 0 16-7.164062 16-16v-16h48v52.71875c-48.9375 14.558594-81.820312 60.390625-79.933594 111.414062 1.882813 51.019532 38.054688 94.300782 87.933594 105.210938v10.65625c-4.417969 0-8 3.582031-8 8v24h-256v-312h48v16c0 8.835938 7.164062 16 16 16zm-216 312c-4.417969 0-8-3.582031-8-8v-360c0-4.417969 3.582031-8 8-8h72v16h-48c-8.835938 0-16 7.164062-16 16v312c0 8.835938 7.164062 16 16 16h256v16zm328 24c0 8.835938-7.164062 16-16 16s-16-7.164062-16-16v-72h32zm-8-88h-16v-8.40625c2.65625.191406 5.296875.40625 8 .40625s5.34375-.214844 8-.40625zm0 0"/><path d="m256 240c.046875 44.164062 35.835938 79.953125 80 80v-16c-35.347656 0-64-28.652344-64-64s28.652344-64 64-64v-16c-44.164062.046875-79.953125 35.835938-80 80zm0 0"/><path d="m80 160v64c0 4.417969 3.582031 8 8 8h64c4.417969 0 8-3.582031 8-8v-58.398438l14.070312-16.425781-12.140624-10.398437-11.320313 13.222656h-62.609375c-4.417969 0-8 3.582031-8 8zm16 8h40.894531l-17.351562 20.230469-9.886719-9.886719-11.3125 11.3125 16 16c1.5 1.5 3.535156 2.34375 5.65625 2.34375h.3125c2.222656-.089844 4.3125-1.101562 5.757812-2.792969l17.929688-20.917969v31.710938h-48zm0 0"/></svg>