<?xml version="1.0"?>
<svg xmlns="http://www.w3.org/2000/svg" viewBox="0 0 64 64" width="512" height="512"><g id="Flask-5" data-name="Flask"><path d="M50,21.357V16a3,3,0,0,0,0-6H36a3,3,0,0,0,0,6v5.356a19.092,19.092,0,0,0-6.065,3.876L29,22.813V8h1a3,3,0,0,0,0-6H14a3,3,0,0,0,0,6h1V22.813L2.562,54.981A5,5,0,0,0,7.137,62H36.863a5,5,0,0,0,4.908-4.041c.4.026.81.041,1.229.041a18.988,18.988,0,0,0,7-36.643ZM35,13a1,1,0,0,1,1-1H50a1,1,0,0,1,0,2H36A1,1,0,0,1,35,13Zm2.333,9.993A1,1,0,0,0,38,22.05V16H48v6.05a1,1,0,0,0,.667.943A16.989,16.989,0,0,1,57.4,30H31.779l-1.056-2.732A17.036,17.036,0,0,1,37.333,22.993ZM13,5a1,1,0,0,1,1-1H30a1,1,0,0,1,0,2H14A1,1,0,0,1,13,5Zm3.933,18.361A1.009,1.009,0,0,0,17,23V8H27V23a1.009,1.009,0,0,0,.067.361L32.1,36.379c-.318-.1-.627-.208-.937-.32a14.051,14.051,0,0,0-5.5-.989,14,14,0,0,0-5.5.989,12.2,12.2,0,0,1-4.832.871,12.231,12.231,0,0,1-3.48-.426ZM39.376,58.638A2.952,2.952,0,0,1,36.863,60H7.137A3,3,0,0,1,4.41,55.746l6.716-17.368a14.008,14.008,0,0,0,4.2.552,14.04,14.04,0,0,0,5.509-.99,12.181,12.181,0,0,1,4.821-.87,12.2,12.2,0,0,1,4.827.87,15.813,15.813,0,0,0,2.5.724l6.623,17.125A2.949,2.949,0,0,1,39.376,58.638ZM43,56c-.432,0-.847-.021-1.253-.051a4.772,4.772,0,0,0-.291-.925L32.552,32H58.469A16.958,16.958,0,0,1,43,56Z"/><path d="M40,8a3,3,0,1,0-3-3A3,3,0,0,0,40,8Zm0-4a1,1,0,1,1-1,1A1,1,0,0,1,40,4Z"/><path d="M50,43a3,3,0,1,0,3,3A3,3,0,0,0,50,43Zm0,4a1,1,0,1,1,1-1A1,1,0,0,1,50,47Z"/><path d="M40,34a3,3,0,1,0,3,3A3,3,0,0,0,40,34Zm0,4a1,1,0,1,1,1-1A1,1,0,0,1,40,38Z"/><path d="M15,44a3,3,0,1,0,3,3A3,3,0,0,0,15,44Zm0,4a1,1,0,1,1,1-1A1,1,0,0,1,15,48Z"/><path d="M21,19a3,3,0,1,0-3-3A3,3,0,0,0,21,19Zm0-4a1,1,0,1,1-1,1A1,1,0,0,1,21,15Z"/><path d="M29,47a3,3,0,1,0,3,3A3,3,0,0,0,29,47Zm0,4a1,1,0,1,1,1-1A1,1,0,0,1,29,51Z"/><rect x="19" y="28" width="2" height="2"/><rect x="23" y="24" width="2" height="2"/><rect x="40" y="19" width="2" height="2"/><rect x="44" y="24" width="2" height="2"/><rect x="45" y="6" width="2" height="2"/><rect x="53" y="36" width="2" height="2"/><rect x="26" y="40" width="2" height="2"/><rect x="18" y="54" width="2" height="2"/></g></svg>
