<svg height="478pt" viewBox="-71 0 478 478.74788" width="478pt"
  xmlns="http://www.w3.org/2000/svg">
  <path
    d="m240.375 54.746094v-16c0-8.835938-7.164062-16-16-16h-26.402344c-3.570312-13.410156-15.71875-22.746094-29.597656-22.746094-13.882812 0-26.027344 9.335938-29.601562 22.746094h-26.398438c-8.835938 0-16 7.164062-16 16v16h-96v424h336v-424zm-128-16h41.367188v-8c0-8.078125 6.550781-14.628906 14.632812-14.628906 8.078125 0 14.632812 6.550781 14.632812 14.628906v8h41.367188v40c0 4.421875-3.582031 8-8 8h-96c-4.417969 0-8-3.578125-8-8zm208 424h-304v-392h80v8c0 13.257812 10.742188 24 24 24h96c13.253906 0 24-10.742188 24-24v-8h80zm0 0"
    fill="#424242"/>
  <path d="m128.375 54.746094h80v16h-80zm0 0"
  fill="#424242"/>
  <path
    d="m150.03125 140.402344-11.3125-11.308594-42.34375 42.34375-18.34375-18.34375-11.3125 11.308594 29.65625 29.65625zm0 0"
    fill="#424242"/>
  <path d="m120.375 198.746094h-56v-48h-16v64h72zm0 0"
  fill="#424242"/>
  <path d="m152.375 198.746094h128v16h-128zm0 0"
  fill="#424242"/>
  <path
    d="m138.71875 241.09375-42.34375 42.34375-18.34375-18.34375-11.3125 11.308594 29.65625 29.65625 53.65625-53.65625zm0 0"
    fill="#424242"/>
  <path d="m120.375 310.746094h-56v-48h-16v64h72zm0 0"
  fill="#424242"/>
  <path d="m152.375 310.746094h128v16h-128zm0 0"
  fill="#424242"/>
  <path
    d="m78.03125 377.09375-11.3125 11.308594 29.65625 29.65625 53.65625-53.65625-11.3125-11.308594-42.34375 42.34375zm0 0"
    fill="#424242"/>
  <path d="m64.375 374.746094h-16v64h72v-16h-56zm0 0"
  fill="#424242"/>
  <path d="m144.375 422.746094h136v16h-136zm0 0"
  fill="#424242"/>
</svg>