<svg height="512pt" viewBox="0 -98 512 512" width="512pt"
  xmlns="http://www.w3.org/2000/svg">
  <path d="m497.019531 105.65625c-1.867187-.222656-3.738281-.429688-5.605469-.648438l-48.328124-63.402343c-20.148438-26.441407-50.335938-41.605469-82.816407-41.605469-4.144531 0-7.5 3.355469-7.5 7.5s3.355469 7.5 7.5 7.5c27.757813 0 53.597657 13.011719 70.886719 35.695312l39.644531 52.019532c-65.339843-6.917969-131.5625-10.710938-197.234375-11.28125-.023437 0-.042968 0-.066406 0-4.113281 0-7.464844 3.316406-7.5 7.4375-.035156 4.144531 3.292969 7.53125 7.4375 7.566406 73.925781.636719 148.550781 5.386719 221.808594 14.117188.984375.117187 1.753906 1.140624 1.753906 2.332031v10.425781c0 1.320312-.953125 2.457031-2.160156 2.320312-154.617188-18.546874-315.648438-19.441406-477.675782-.011718-1.230468.132812-2.160156-1.019532-2.160156-2.320313v-10.425781c0-1.191406.769532-2.214844 1.753906-2.332031 73.261719-8.726563 147.890626-13.472657 221.808594-14.109375 4.140625-.035156 7.46875-3.421875 7.433594-7.5625-.035156-4.121094-3.386719-7.4375-7.496094-7.4375-.023437 0-.046875 0-.066406 0-65.664062.566406-131.882812 4.355468-197.226562 11.269531l39.636718-52.007813c17.289063-22.683593 43.125-35.695312 70.886719-35.695312 4.140625 0 7.5-3.355469 7.5-7.5 0-4.140625-3.359375-7.5-7.5-7.5-32.480469 0-62.664063 15.164062-82.816406 41.605469l-48.320313 63.394531c-1.871094.214844-3.746094.425781-5.617187.648438-8.542969 1.015624-14.980469 8.421874-14.980469 17.226562v10.425781c0 9.820313 7.976562 17.722657 17.699219 17.296875l5.476562 77.671875c2.203125 31.207031 23.113281 58.179688 52.03125 67.121094l53.710938 16.601563c33.746093 10.433593 70.070312-5.566407 86.113281-38.40625 9.019531.8125 17.820312-4.121094 21.800781-12.972657l7.070313-15.734375c2.292968-5.097656 6.8125-8.140625 12.09375-8.140625 5.285156 0 9.808594 3.042969 12.097656 8.140625l7.074219 15.734375c4.027343 8.964844 12.941406 13.789063 21.808593 12.988281 15.964844 32.667969 52.199219 48.875 86.105469 38.390626l53.710938-16.601563c28.921875-8.941406 49.828125-35.914063 52.027343-67.121094l.414063-5.824219c.289063-4.132812-2.824219-7.71875-6.957031-8.007812-4.117188-.308594-7.714844 2.820312-8.007813 6.953125l-.410156 5.824219c-1.769531 25.078125-18.445313 46.714844-41.496094 53.84375l-53.710937 16.601562c-27.058594 8.363282-55.378906-4.441406-68.152344-30.519531 6.351562-6.484375 8.375-16.675781 4.453125-25.394531-7.839844-17.449219-7.347656-16.40625-8.285156-18.261719-9.90625-19.632813-29.078125-31.714844-50.671875-31.714844-22.507813 0-42.386719 13.121094-51.878906 34.242188-6.21875 13.832031-15.679688 27.742187-2.617188 41.128906-12.773438 26.074219-41.097656 38.882813-68.152344 30.519531l-53.710937-16.605468c-23.050781-7.125-39.726563-28.761719-41.496094-53.839844l-5.519531-78.277344c146.070312-16.488281 296.320312-16.984375 446.757812.011719l-2.640625 37.4375c-.292969 4.132812 2.820313 7.71875 6.953125 8.011719 4.128906.273437 7.71875-2.820313 8.007813-6.957032l2.597656-36.816406c.242187.007812.484375.019531.726563.019531 9.367187 0 16.976562-7.742187 16.976562-17.332031v-10.425781c0-8.804688-6.441406-16.210938-14.980469-17.230469zm-208.167969 148.808594-7.074218-15.738282c-4.710938-10.476562-14.589844-16.988281-25.777344-16.988281s-21.066406 6.511719-25.777344 16.988281l-7.074218 15.738282c-1.667969 3.710937-5.699219 5.1875-9.03125 3.5625-3.585938-1.746094-5.113282-6.285156-3.390626-10.128906l7.074219-15.734376c7.171875-15.953124 21.988281-25.390624 38.191407-25.390624 16.527343 0 31.167968 9.730468 38.207031 25.390624l7.074219 15.734376c1.726562 3.839843.199218 8.378906-3.386719 10.128906-.003907 0-.003907 0-.007813.003906-3.347656 1.621094-7.363281.132812-9.027344-3.566406zm0 0"
  fill="#424242"/>
</svg>